<?xml version="1.0" standalone="no"?>
<!DOCTYPE svg PUBLIC "-//W3C//DTD SVG 20010904//EN"
 "http://www.w3.org/TR/2001/REC-SVG-20010904/DTD/svg10.dtd">
<svg version="1.0" xmlns="http://www.w3.org/2000/svg"
 width="517.000000pt" height="517.000000pt" viewBox="0 0 517.000000 517.000000"
 preserveAspectRatio="xMidYMid meet">
<metadata>
Created by potrace 1.14, written by Peter Selinger 2001-2017
</metadata>
<g transform="translate(0.000000,517.000000) scale(0.100000,-0.100000)"
fill="#000000" stroke="none">
<path d="M2485 4692 c-1 -1 -67 -5 -146 -7 -79 -2 -211 -7 -294 -10 l-150 -6
-277 -282 c-153 -155 -278 -285 -278 -289 0 -5 11 -9 25 -9 14 -1 34 -3 45 -4
11 -1 34 -3 50 -4 l30 -1 0 -69 c0 -49 -4 -72 -15 -81 -16 -13 -21 -65 -7 -74
5 -3 5 -35 1 -73 -5 -37 -8 -78 -8 -91 l-1 -23 27 20 c23 19 28 20 43 6 30
-27 38 -18 33 38 -6 73 -5 118 2 149 5 18 2 31 -12 45 -15 15 -18 33 -18 100
1 85 8 112 19 68 5 -20 13 -25 39 -26 69 -2 78 -10 117 -99 21 -47 41 -83 46
-80 5 3 24 25 43 50 118 159 325 281 514 307 51 6 191 7 230 0 15 -2 27 -3 27
-1 0 2 -12 33 -26 69 -16 41 -32 66 -43 66 -55 5 -102 3 -143 -8 -27 -6 -48
-10 -48 -8 0 4 -77 -22 -160 -54 -53 -21 -54 -21 -30 -1 65 51 239 122 335
136 17 2 38 5 47 7 12 2 198 229 198 242 0 3 -211 0 -215 -3z"/>
<path d="M2377 4194 c-1 -1 -22 -5 -47 -8 -221 -27 -423 -166 -533 -366 -23
-41 -40 -81 -39 -87 2 -7 -1 -13 -6 -13 -14 0 -45 -151 -47 -235 -2 -67 14
-174 39 -266 9 -34 60 -126 101 -184 89 -125 221 -220 368 -265 100 -30 133
-34 301 -35 150 0 159 -1 173 -21 12 -19 12 -24 -2 -38 -14 -14 -49 -16 -261
-16 -134 0 -247 0 -251 -1 -5 -1 -25 -10 -45 -20 -90 -46 -120 -167 -62 -250
51 -74 72 -79 355 -79 213 0 248 -2 260 -16 9 -11 10 -20 2 -32 -9 -14 -36
-18 -179 -22 -93 -3 -180 -11 -194 -17 -103 -46 -131 -200 -51 -284 42 -44 80
-53 231 -54 150 -1 191 7 204 40 11 31 6 62 -14 80 -18 16 -40 19 -163 20 -79
1 -148 5 -155 9 -15 9 -15 39 0 54 8 8 60 12 169 12 87 0 169 4 182 9 83 32
131 124 108 210 -12 45 -48 93 -83 112 -34 18 -248 33 -248 17 0 -4 -6 -5 -14
-2 -23 9 -106 10 -106 1 0 -5 -4 -5 -10 -2 -5 3 -43 6 -84 6 -83 0 -112 13
-102 47 7 21 11 21 249 22 133 0 251 2 262 5 11 2 26 4 33 4 27 2 100 81 108
119 13 60 4 113 -24 152 l-19 25 48 30 c63 40 145 118 192 182 38 52 105 186
113 227 2 11 6 32 9 46 3 14 7 36 10 50 11 55 6 191 -9 265 -15 74 -69 191
-120 264 -98 140 -286 262 -450 292 -47 9 -194 18 -199 13z"/>
<path d="M2851 4132 c155 -91 297 -282 344 -462 20 -74 23 -109 21 -219 -3
-125 -7 -153 -27 -221 -12 -37 -79 -181 -88 -190 -4 -3 -19 -24 -35 -47 -15
-23 -50 -63 -77 -88 -53 -50 -61 -62 -28 -44 41 22 175 165 211 227 45 76 96
214 102 279 3 27 5 50 6 53 3 8 -1 101 -6 155 -5 59 -37 160 -72 230 -68 137
-189 257 -331 329 -66 34 -78 33 -20 -2z"/>
<path d="M694 1605 c-82 -19 -130 -60 -158 -136 -44 -117 -7 -254 81 -306 74
-43 203 -32 219 20 5 15 8 17 14 6 5 -7 7 -16 4 -20 -7 -13 19 -24 59 -25 42
-1 39 -13 39 133 0 50 -3 96 -6 101 -3 5 -47 9 -99 10 l-93 1 -1 -45 c-1 -27
3 -44 10 -45 7 -1 26 -2 42 -3 37 -2 36 -21 -3 -53 -31 -26 -45 -28 -91 -12
-45 16 -68 67 -66 144 3 94 30 139 90 149 38 7 95 -25 95 -53 0 -23 10 -26 75
-26 48 0 50 1 46 25 -9 70 -69 125 -146 135 -28 4 -52 8 -55 10 -3 1 -28 -3
-56 -10z"/>
<path d="M1685 1612 c-1 -2 -15 -5 -31 -8 -45 -7 -107 -55 -133 -103 -35 -63
-37 -172 -6 -240 47 -100 166 -149 282 -115 58 16 99 48 129 100 22 38 27 58
28 123 1 64 -3 86 -24 126 -40 78 -107 115 -213 119 -16 1 -30 0 -32 -2z m92
-100 c68 -37 78 -195 17 -261 -19 -20 -34 -26 -68 -26 -77 0 -118 64 -110 170
4 62 23 97 62 117 37 18 65 18 99 0z"/>
<path d="M1065 1600 c-1 -3 -2 -106 -3 -230 l0 -226 174 0 174 0 0 47 0 48
-111 0 c-70 -1 -114 3 -118 10 -4 6 -5 26 -3 44 l4 34 86 0 c132 1 122 -3 122
46 l0 44 -100 0 c-56 0 -103 2 -104 4 -5 5 -9 39 -7 66 1 22 5 22 114 25 l112
3 0 38 c0 21 -4 42 -10 45 -12 7 -326 9 -330 2z"/>
<path d="M2063 1596 c-4 -5 -7 -109 -7 -231 l-1 -222 60 1 60 1 0 143 c-1 135
7 180 18 110 11 -71 59 -243 69 -249 7 -4 34 -7 60 -6 52 1 62 9 72 58 3 13
18 76 35 139 l30 115 0 -156 1 -155 58 0 58 1 0 227 c0 197 -3 228 -16 229 -8
1 -48 2 -88 3 l-73 1 -9 -35 c-18 -71 -42 -176 -47 -210 -6 -39 -22 -85 -27
-79 -2 2 -7 18 -10 34 -3 17 -12 59 -20 95 -8 36 -21 92 -27 125 -7 33 -14 62
-16 64 -6 9 -175 6 -180 -3z"/>
<path d="M2701 1600 c-4 -3 -7 -106 -6 -230 l0 -225 173 -1 c115 0 172 3 173
10 2 13 2 68 0 78 -1 3 -40 7 -88 7 -157 0 -141 -5 -139 44 l1 42 98 0 c100 1
117 7 111 43 -1 6 -2 21 -3 31 -1 18 -9 19 -78 19 -143 -1 -133 -4 -133 47 l0
45 113 0 112 0 0 47 0 48 -163 0 c-90 0 -167 -2 -171 -5z"/>
<path d="M3113 1600 c-18 -5 -21 -19 -14 -77 1 -8 26 -13 74 -15 l72 -3 1
-170 c1 -93 2 -175 3 -180 1 -15 99 -17 108 -2 4 7 7 89 8 182 l0 170 71 3
c70 3 72 4 76 30 9 70 18 67 -192 67 -104 0 -197 -2 -207 -5z"/>
<path d="M3589 1580 c0 -14 -1 -117 -2 -230 l-1 -205 57 -1 c47 -2 57 1 58 14
1 10 2 44 3 77 1 33 3 66 4 73 2 13 59 16 79 4 13 -8 44 -75 42 -89 -3 -19 2
-49 11 -63 6 -10 27 -15 70 -15 33 -1 60 0 60 2 0 1 -4 12 -10 25 -5 13 -14
49 -20 81 -7 33 -22 69 -36 86 -24 29 -24 30 -5 36 37 12 60 56 57 112 -5 93
-51 115 -237 117 l-129 2 -1 -26z m233 -87 c20 -24 16 -63 -8 -76 -21 -12
-103 -19 -105 -8 -1 3 -2 27 -4 54 l-2 47 52 0 c37 0 56 -5 67 -17z"/>
<path d="M4025 1601 c-3 -2 6 -22 19 -45 13 -22 38 -68 56 -101 19 -33 37 -62
40 -65 20 -17 35 -77 40 -155 l5 -90 55 0 55 0 0 80 c0 71 16 139 35 155 9 7
120 209 120 218 0 5 -86 8 -121 3 -3 -1 -23 -39 -45 -86 -21 -47 -41 -85 -44
-85 -3 0 -24 39 -46 86 l-40 87 -63 1 c-35 1 -64 -1 -66 -3z"/>
<path d="M438 913 c-2 -5 -4 -51 -4 -103 1 -87 3 -95 21 -98 19 -3 20 3 20
103 0 92 -2 105 -17 105 -9 0 -18 -3 -20 -7z"/>
<path d="M598 913 c-2 -5 -4 -51 -3 -103 0 -88 2 -95 21 -98 19 -3 20 2 19 68
0 38 3 70 6 70 4 0 23 -32 44 -71 33 -63 40 -70 63 -67 l27 3 2 103 c2 95 0
102 -18 102 -20 0 -21 -5 -21 -92 1 -27 -2 -48 -6 -48 -4 0 -25 32 -46 70 -30
56 -42 70 -61 70 -13 0 -25 -3 -27 -7z"/>
<path d="M885 909 c-10 -15 0 -22 37 -23 l32 -1 0 -88 c-1 -78 1 -87 18 -87
10 0 18 7 19 18 0 9 1 49 1 89 1 66 3 72 22 71 45 -2 55 2 50 17 -5 12 -25 15
-89 15 -49 0 -87 -4 -90 -11z"/>
<path d="M1169 918 c-1 -2 -2 -49 -3 -105 l-1 -103 71 0 c39 0 74 3 77 7 16
15 -16 30 -58 27 -25 -2 -46 1 -46 6 -6 43 -4 45 43 48 29 2 48 8 52 18 4 11
-5 14 -44 14 -43 0 -50 3 -50 20 0 11 0 23 0 28 0 4 21 7 47 7 37 1 49 5 51
18 3 15 -6 17 -67 17 -39 0 -72 -1 -72 -2z"/>
<path d="M1429 918 c0 -2 -1 -49 -2 -106 l-2 -102 78 0 c56 0 76 3 75 13 -4
17 -27 25 -70 22 -43 -3 -42 -6 -39 118 1 51 -1 57 -19 57 -11 0 -20 -1 -21
-2z"/>
<path d="M1685 818 l0 -103 73 -3 c66 -3 73 -1 70 15 -3 14 -13 18 -51 17 -27
-1 -48 4 -48 10 -1 6 -3 45 -3 86 -2 67 -4 75 -22 78 -18 3 -19 -3 -19 -100z"/>
<path d="M1944 815 c0 -99 2 -106 20 -103 18 3 19 11 18 98 0 52 -1 98 -1 103
-1 4 -9 7 -19 7 -16 0 -18 -10 -18 -105z"/>
<path d="M2134 902 c-32 -25 -42 -52 -40 -100 3 -56 37 -92 89 -94 26 -1 42 4
52 18 13 17 14 17 15 2 0 -20 30 -25 31 -5 5 89 4 91 -49 93 -25 1 -32 -2 -30
-15 2 -9 11 -15 21 -15 22 2 22 -19 1 -37 -39 -32 -82 -4 -88 57 -2 28 2 47
14 62 23 28 66 29 82 2 7 -11 23 -20 36 -20 22 0 22 1 8 29 -23 43 -102 56
-142 23z"/>
<path d="M2402 903 c0 -10 0 -49 -1 -88 -1 -114 -8 -105 76 -105 66 0 74 2 71
18 -3 14 -13 17 -56 16 -51 -1 -52 0 -52 28 0 27 2 28 50 28 38 0 50 4 50 15
0 11 -12 15 -51 15 -49 0 -50 1 -47 28 3 25 6 27 52 27 38 1 50 5 52 18 2 15
-8 17 -71 17 -64 0 -74 -2 -73 -17z"/>
<path d="M2668 913 c-3 -4 -4 -51 -4 -103 1 -88 3 -95 21 -95 18 0 20 7 19 73
0 40 3 69 7 65 4 -4 23 -37 42 -73 30 -57 39 -65 63 -65 l29 0 0 100 c0 93 -1
100 -20 100 -18 0 -20 -6 -19 -72 1 -40 -2 -73 -5 -73 -3 0 -22 33 -42 73 -29
57 -42 73 -62 75 -14 2 -27 0 -29 -5z"/>
<path d="M2946 905 c-5 -15 5 -18 57 -18 16 0 18 -9 16 -76 -1 -103 -2 -101
22 -101 19 0 20 5 18 79 -2 80 3 103 24 100 30 -4 47 2 47 16 0 12 -17 15 -89
15 -70 0 -90 -3 -95 -15z"/>
<path d="M3340 910 c0 -13 23 -22 70 -29 3 -1 5 -39 4 -86 -1 -82 0 -86 20
-83 19 3 21 10 22 78 2 107 0 102 36 98 23 -2 32 1 34 15 2 15 -8 17 -92 17
-58 0 -94 -4 -94 -10z"/>
<path d="M3625 908 c-6 -19 1 -150 9 -170 16 -37 109 -39 143 -5 15 14 24 159
12 178 -4 7 -13 9 -20 7 -10 -3 -14 -24 -15 -69 -2 -96 -3 -98 -22 -108 -12
-7 -26 -6 -43 2 -22 12 -24 18 -24 92 -1 67 -3 80 -18 83 -9 2 -19 -2 -22 -10z"/>
<path d="M3896 912 c-9 -15 9 -27 39 -27 l30 0 1 -75 c2 -102 2 -100 23 -100
16 0 18 8 17 81 -1 91 1 99 29 95 21 -4 45 10 45 25 0 11 -177 12 -184 1z"/>
<path d="M4208 906 c-22 -16 -45 -73 -43 -104 5 -58 44 -93 106 -94 43 0 63
12 85 53 21 42 17 88 -12 126 -22 29 -30 33 -72 33 -26 0 -55 -7 -64 -14z
m103 -33 c20 -23 18 -97 -4 -120 -9 -11 -27 -19 -40 -17 -12 1 -26 3 -30 3 -4
1 -14 15 -21 33 -15 34 -4 96 18 110 20 13 63 8 77 -9z"/>
<path d="M4487 913 c-2 -5 -3 -51 -3 -103 1 -87 3 -95 22 -98 18 -3 20 2 20
39 -1 35 3 43 19 45 28 4 44 -7 49 -36 2 -14 5 -27 6 -30 2 -3 2 -8 1 -12 0
-5 10 -8 23 -8 23 0 24 2 14 38 -5 20 -14 42 -19 48 -6 8 -5 17 4 25 27 28 28
49 2 75 -20 20 -34 24 -79 24 -30 0 -57 -3 -59 -7z m101 -32 c20 -1 15 -51 -5
-53 -55 -4 -56 -3 -58 30 -1 29 1 32 24 28 14 -2 32 -5 39 -5z"/>
</g>
</svg>
